<svg id="Layer_1" data-name="Layer 1" xmlns="http://www.w3.org/2000/svg" viewBox="0 0 682.38 405.42"><defs><style>.cls-1{fill:#020102;}.cls-2{fill:#fd6d95;}</style></defs><path class="cls-1" d="M320.88,217.57c3.53.62,7,1.33,10.58,1.84a250.43,250.43,0,0,1,48.34,12.31c1.77.63,3.37,1.75,5.33,1.85.12.94,1,.85,1.58,1.08a182.72,182.72,0,0,1,42.5,23.63,163.33,163.33,0,0,1,42.84,47.07,172.82,172.82,0,0,1,10.31,19.91c.44,1,.74,2.64,2.1,2.55,1.09-.07,1.4-1.54,1.79-2.57.14-.37.27-.75.41-1.12,3.19-8.27,6.41-16.53,9.58-24.8q9-23.47,16.14-47.56a34,34,0,0,1,13-18.52c6.95-5,13.57-3.26,16.1,4.18a15.09,15.09,0,0,1-.07,8.85c-3.34,12.32-7.4,24.41-11.56,36.46-9.15,26.48-19.45,52.52-31.17,78-1.92,4.16-4,8.2-3.12,13.11a76.15,76.15,0,0,1,1.31,11.59c.36,14.37.46,28.72-2.57,42.89-.75,3.49-.24,4.07,3.19,3.76,11.55-1,23.16-.84,34.71-1.94,10.14-1,20.37-.6,30.52-1.62,1.55-.16,2.94-.24,3.58-2.05,3.46-9.77,6.9-19.53,10.5-29.24,6.13-16.54,12.42-33,19.39-49.22a28,28,0,0,1,12.13-13.62c5.93-3.36,11.85-1.69,14.19,4.15a16.76,16.76,0,0,1,.71,7.39c-.26,3.95-1.81,7.52-3.21,11.13-5.86,15.15-11.79,30.27-17.59,45.45-2.67,7-5.1,14.05-7.64,21.09-.63,1.75-.37,3.12,1.81,3,8.64-.31,17.3-.49,25.89-1.74l4.73.06c3.86,3.08,6.28,7,5.81,12a33.87,33.87,0,0,1-7.22,18A26.26,26.26,0,0,1,611,464.16l-1.85.06a90.08,90.08,0,0,0-20.35,1.12,16.49,16.49,0,0,0-5.38.26c-1-.36-1.54.35-1.74,1.1-1.3,5.05-2.77,10.06-3.32,15.26-.08.59-.17,1.18-.26,1.77-2,4-2.21,8.57-3,12.89-.65,3.66-2,7.29-1.5,11.13-.1,1-.2,2-.29,2.93a6.83,6.83,0,0,0-1,5.42c-.08,1.19-.17,2.39-.26,3.59-.79.44-.46,1.23-.55,1.88-1.71,12.11-1,24.3-1.39,36.46-.39,11.29-5.45,20.44-15.39,26.12-7.12,4.07-13.55,1.39-14.75-6.94a42.75,42.75,0,0,1-.5-5.05c-.29-14.49.93-28.9,2.32-43.31.49-5,1.92-10,1.62-15.08.09-1,.18-2,.26-2.95.9-.42.73-1.35.87-2.06,1.28-6.51,2.6-13,3.68-19.55.36-2.21,1.85-4.22,1.2-6.61l.24-1.72c1.92-3.42,2.26-7.3,3.19-11,.51-2.08-.34-3-2.47-2.9-3.69.24-7.37.52-11.06.71-17,.88-34.09,1.69-51.14,2.63-2.4.14-5-.21-7.16,1.24l-.52.39c-1.12.16-1.21,1.21-1.59,1.95-10.88,21.36-26.22,39-45.2,53.51-13,10-27.25,18.14-41.74,25.78a568,568,0,0,1-57.69,26.33c-11.61,4.55-23.29,8.91-35.12,12.79q-22.19,7.25-44.94,12.6c-11.76,2.79-23.6,5.1-35.47,7.32-4.66.88-9.49,1-13.93,2.95l-3,.23c-4.41.53-8.82,1.1-13.23,1.6-10.88,1.25-21.76,2.52-32.65,3.67-3.52.37-5.14-2-4.16-5.49.42-1.53,1.7-2.68,1.77-4.33a.35.35,0,0,0,.31-.33q9.82-5.91,19.64-11.83l51.76-31.2c.78-.47,1.66-.93,1.47-2s-1.22-1.17-2.09-1.34a176.83,176.83,0,0,1-43.38-15,172,172,0,0,1-38-25.32,169.36,169.36,0,0,1-30.91-36.32c-.4-.63-.61-1.7-1.54-1.65-1.11.07-1.2,1.2-1.37,2-.89,4.29-2,8.56-2.49,12.9-.44,4.12-2.18,8.12-1.41,12.37l-.21,1.79c-1,.87-1,2.14-1,3.26-1,12.93-2.23,25.85-1.65,38.85a23.32,23.32,0,0,1-2.69,12.71c-3,5.3-6.37,10.21-11.73,13.65-3.37,2.16-6.63,3.17-10.32,1.82s-5-4.57-5.21-8c-1.06-17.78.09-35.47,2.42-53.11.63-4.81,1.07-9.64,1.6-14.46l.15-1.84c2-4.6,2-9.65,3.19-14.45.61-2.54,2.09-5,1.35-7.74.1-.77.21-1.54.31-2.3,1.09-.52,1-1.63,1.19-2.55.72-3,1.32-6,2.08-9,1.23-4.8,1.17-5-3.68-4.73-20.41,1.08-40.81,2.13-61.21,3.36-3.43.2-6.92.11-10.29,1l-5.39.18a4.24,4.24,0,0,0-2.63-.21c-12.77.69-25.53,1.38-38.29,2.15-4.67.28-7.58-1.22-9-5.19A18.89,18.89,0,0,1-46.26,458c.94-5,3.41-9.28,5.94-13.6C-31,428.53-22,412.45-13.51,396c9.45-18.35,18.32-37,26.36-56,7.72-18.25,14.92-36.71,21.4-55.46,4.06-11.76,7.9-23.6,11.74-35.44a28.16,28.16,0,0,1,15.77-17.84c4.83-2.12,9.05-.62,11.45,3.87s1.56,9.18.27,13.68c-2.08,7.28-4.61,14.43-6.82,21.67-1,3.19-2.46,6.23-2.83,9.6-.14.55-.27,1.11-.4,1.65-1,.21-1,1.15-1.22,1.85-5.44,15.95-11.5,31.67-17.88,47.27-10.43,25.5-22.14,50.42-34.67,74.95-4.2,8.23-8.7,16.3-13,24.48-1.3,2.47-.6,3.57,2.19,3.5a67,67,0,0,0,7.77-.57c4.11-.63,8.33.07,12.38-1.1l2.43-.08A84.22,84.22,0,0,0,40,431l9.58-.28a4.57,4.57,0,0,0,1.13.24c11.94-.62,23.89-1.2,35.82-1.94,4.39-.27,4.7-.93,4.1-5.49-1.78-13.64-.87-27.18,1.22-40.73.57-3.69,2-7.28,1.71-11.09.13-.73.27-1.46.41-2.19,1.78-1.63,1.26-4,1.94-6,1.35-4,2.43-8.07,3.62-12.1.15-.56.31-1.12.46-1.68,1-.27.86-1.21,1.15-1.9,1.81-4.31,3.65-8.61,5.4-12.95,1.58-3.93,4-7.49,5.14-11.62,5.06-8.71,10.06-17.45,16-25.61a192.12,192.12,0,0,1,35.39-37.17,189.61,189.61,0,0,1,57.18-31.41,226.79,226.79,0,0,1,97.69-11.56,9.16,9.16,0,0,0,1.48-.06C319.83,218.37,320.34,218.24,320.88,217.57ZM100,402.73c0,3.5-.08,7,0,10.48,0,1.2-.11,3.08,1.41,3.23,1.32.12,1.37-1.72,1.76-2.79q7.95-21.76,16.47-43.33c3.07-7.76,6.35-15.41,9.69-23.05a26.64,26.64,0,0,1,9.9-12,19.34,19.34,0,0,1,6.49-2.67c5.3-1.15,9.9,3.3,10.53,9.58.54,5.4-1.68,10.17-3.49,14.91-3.19,8.36-6.74,16.61-10,24.94-2.79,7.21-5.72,14.4-8.07,21.8-2,6.16-4.31,12.21-6.39,18.34-1.21,3.56-.81,4.16,2.88,4,7.68-.32,15.36-.77,23-1.22s11.31,3,11.45,10.54c.17,9.66-4.13,17.25-11,23.64a19,19,0,0,1-12.54,4.93q-11.82.6-23.64,1.27c-2.83.16-3.3.88-2,3.3,2,3.47,4,6.91,6.09,10.29a150.06,150.06,0,0,0,34.94,38.68,171.36,171.36,0,0,0,51.27,27.94c9.06,3.09,18.25,5.81,27.82,7,3.56.44,7.1,1.06,10.65,1.64,2.65.43,3.76,2,3.38,4.66a11.13,11.13,0,0,1-5.59,8.4Q228.07,577.48,211,587.76q-12.31,7.41-24.57,14.92c-.7.42-1.91.81-1.44,1.92.39.92,1.4.28,2.15.27a104.52,104.52,0,0,0,14.56-1.79c11.81-2,23.61-4,35.37-6.21q10.43-1.95,20.71-4.55,12.77-3.24,25.38-7c11.74-3.56,23.53-7,35.08-11.16a556.17,556.17,0,0,0,55.68-23.53c18.5-9,36.79-18.29,53.6-30.3s30.81-26.79,41.1-44.85c.53-.93,1.49-1.95.93-3-.69-1.3-2.15-.8-3.28-.68-11.74,1.21-23.57.82-35.3,2-6.2.65-9.24-2.54-10.32-8.93s.92-12.09,4.12-17.37c9.76-16.15,18.88-32.64,27.62-49.36,8.33-15.92,15.87-32.21,23.46-48.48a9,9,0,0,0,.26-7.44,160.16,160.16,0,0,0-37.19-57.64,171.28,171.28,0,0,0-39.81-29A206.87,206.87,0,0,0,354.06,238a259.42,259.42,0,0,0-38.2-7.26c-14.71-1.65-29.39-2.36-44.22-.68a262.46,262.46,0,0,0-43.75,8.52A185,185,0,0,0,175.76,263a162.84,162.84,0,0,0-44.34,44,191.21,191.21,0,0,0-23.22,46.42A150.27,150.27,0,0,0,100,402.73Zm385.6-14.06c-6.67,15.08-14.77,28.48-21.74,42.46-1.21,2.44.45,2.8,2.27,2.69,5.37-.32,10.75-.71,16.12-1.12,1.7-.13,2.57-1.05,2.85-2.85A180,180,0,0,0,487.11,398C487,395.18,487.35,392.21,485.55,388.67Z" transform="translate(48.23 -216.35)"/><path class="cls-2" d="M622.43,424.88c-8.59,1.25-17.25,1.43-25.89,1.74-2.18.08-2.44-1.29-1.81-3,2.54-7,5-14.11,7.64-21.09,5.8-15.18,11.73-30.3,17.59-45.45,1.4-3.61,2.95-7.18,3.21-11.13a16.76,16.76,0,0,0-.71-7.39c-2.34-5.84-8.26-7.51-14.19-4.15A28,28,0,0,0,596.14,348c-7,16.21-13.26,32.68-19.39,49.22-3.6,9.71-7,19.47-10.5,29.24-.64,1.81-2,1.89-3.58,2.05-10.15,1-20.38.66-30.52,1.62-11.55,1.1-23.16.9-34.71,1.94-3.43.31-3.94-.27-3.19-3.76,3-14.17,2.93-28.52,2.57-42.89a76.15,76.15,0,0,0-1.31-11.59c-.88-4.91,1.2-8.95,3.12-13.11,11.72-25.46,22-51.5,31.17-78,4.16-12.05,8.22-24.14,11.56-36.46a15.09,15.09,0,0,0,.07-8.85c-2.53-7.44-9.15-9.17-16.1-4.18a34,34,0,0,0-13,18.52q-7.14,24.09-16.14,47.56c-3.17,8.27-6.39,16.53-9.58,24.8-.14.37-.27.75-.41,1.12-.39,1-.7,2.5-1.79,2.57-1.36.09-1.66-1.55-2.1-2.55a172.82,172.82,0,0,0-10.31-19.91,163.33,163.33,0,0,0-42.84-47.07,182.72,182.72,0,0,0-42.5-23.63c-.58-.23-1.46-.14-1.58-1.08,2.56-.72,4.66.74,6.75,1.67a193.87,193.87,0,0,1,37.44,21.55,169.72,169.72,0,0,1,31.22,29.78,187.88,187.88,0,0,1,21.18,33.83c.22.45.41.92.66,1.34.61,1,.06,3.07,1.92,2.9,1.53-.14,1.35-2,1.86-3.13,4.07-9,7.26-18.42,10.68-27.7,3-8.18,5.4-16.61,8.63-24.7,3-7.48,4.28-15.47,7.51-22.88a31,31,0,0,1,15.15-16.15c3.28-1.59,7.14-1.94,10.29.43,3.86,2.92,5,7.15,4.7,11.93-.6,8.79-4.5,16.66-6.76,25S531,284.11,528,292.28c-4.33,11.7-8.48,23.5-13.56,35-3.3,7.43-6.25,15-9.42,22.56-2.24,5.31-4.33,10.7-7,15.82a12.89,12.89,0,0,0-.93,8.9c.88,4.61.89,9.3,1.23,14,.68,9.47,0,18.9-.71,28.32-.31,3.95-1.83,7.73-1.87,11.78,0,1.51.37,2,1.77,1.89,7.55-.46,15.16.64,22.7-1a49.43,49.43,0,0,1,10.12-.75c10.48-.11,20.89-1.62,31.39-1.36a3.11,3.11,0,0,0,3.31-2.38c4.15-11.47,8.22-23,12.65-34.34,4.3-11,8.41-22.09,13-33,2.53-6,4.6-12.22,8.67-17.52a24.79,24.79,0,0,1,12.82-8.81c4.94-1.48,10.49,2.45,12,8.22,1.43,5.26.09,10.16-1.86,15-3.43,8.58-6.62,17.25-10.06,25.82-5.64,14-10.7,28.24-15.86,42.43-1.15,3.18.25,3,2.24,2.72a137.9,137.9,0,0,1,20.91-1.07C620.56,424.43,621.63,423.93,622.43,424.88Z" transform="translate(48.23 -216.35)"/><path class="cls-2" d="M63.83,280.14c.37-3.37,1.85-6.41,2.83-9.6,2.21-7.24,4.74-14.39,6.82-21.67,1.29-4.5,2.13-9.19-.27-13.68s-6.62-6-11.45-3.87A28.16,28.16,0,0,0,46,249.16C42.15,261,38.31,272.84,34.25,284.6c-6.48,18.75-13.68,37.21-21.4,55.46-8,19-16.91,37.63-26.36,56C-22,412.45-31,428.53-40.32,444.44c-2.53,4.32-5,8.56-5.94,13.6a18.89,18.89,0,0,0,.85,10.28c1.46,4,4.37,5.47,9,5.19,12.76-.77,25.52-1.46,38.29-2.15a4.24,4.24,0,0,1,2.63.21C3.14,473.39.92,472.83-.79,473c-12.23.83-24.47,1.41-36.72,2-4.86.21-8-2.14-9.61-6.86-2.19-6.38-1-12.39,2.15-18.12,7.3-13.45,15.56-26.34,22.56-40,6-11.75,12.32-23.35,18-35.29,4-8.34,7.67-16.79,11.63-25.12,3.16-6.66,5.94-13.48,8.69-20.28,3.33-8.28,6.7-16.57,9.77-25,2.18-6,4.22-12,6.63-17.87,1.69-4.12,2.68-8.53,4.35-12.67,3.46-8.59,5.2-17.73,8.6-26.35,3.13-7.94,8.19-14.26,16.18-17.38,8.48-3.31,13.22,1.51,14.61,10.1.58,3.55-.76,6.89-1.7,10.18-2.72,9.44-5.72,18.81-8.65,28.2C65.43,279.35,65,280.19,63.83,280.14Z" transform="translate(48.23 -216.35)"/><path class="cls-2" d="M204.88,615.16c4.44-1.9,9.27-2.07,13.93-2.95,11.87-2.22,23.71-4.53,35.47-7.32q22.72-5.4,44.94-12.6c11.83-3.88,23.51-8.24,35.12-12.79A568,568,0,0,0,392,553.17c14.49-7.64,28.7-15.78,41.74-25.78,19-14.54,34.32-32.15,45.2-53.51.38-.74.47-1.79,1.59-1.95.93,1.44-.24,2.49-.81,3.54A160.07,160.07,0,0,1,457.83,507a173.89,173.89,0,0,1-25.35,23.12,249.71,249.71,0,0,1-31.1,19.58c-8,4.27-16,8.36-24.11,12.41-11,5.53-22.37,10.39-33.7,15.24-12,5.13-24.21,9.61-36.57,13.77-11.57,3.9-23.15,7.86-35,10.68-9.55,2.28-18.81,5.69-28.66,6.91-6.48.81-12.8,2.85-19.22,4.16-5.26,1.06-10.57,1.91-15.88,2.72C207.16,615.72,205.88,616.21,204.88,615.16Z" transform="translate(48.23 -216.35)"/><path class="cls-2" d="M105.69,513.11c-.77-4.25,1-8.25,1.41-12.37.46-4.34,1.6-8.61,2.49-12.9.17-.84.26-2,1.37-2,.93-.05,1.14,1,1.54,1.65a169.36,169.36,0,0,0,30.91,36.32,172,172,0,0,0,38,25.32,176.83,176.83,0,0,0,43.38,15c.87.17,1.9.23,2.09,1.34s-.69,1.53-1.47,2l-51.76,31.2q-9.81,5.93-19.64,11.83c.15-2.13,1.91-2.83,3.39-3.71,9.39-5.62,18.72-11.36,28.16-16.9,9.07-5.34,17.8-11.25,27.16-16.14,3.1-1.63,6.12-3.66,9.11-5.6.72-.47,1.66-1,1.4-2.1s-1.35-1-2.19-1.27a265.07,265.07,0,0,1-26.69-8.49,197.45,197.45,0,0,1-19.22-8.9,158.23,158.23,0,0,1-31.38-21.49c-4.7-4.15-9.08-8.54-13.43-13a104.76,104.76,0,0,1-11-13.37c-2.1-3-4.89-5.55-6.35-9-.28-.66-.78-1.29-1.6-1a2.12,2.12,0,0,0-1.25,1.91c-.77,4.5-1.49,9-2.24,13.53C107.38,507.71,107.45,510.65,105.69,513.11Z" transform="translate(48.23 -216.35)"/><path class="cls-2" d="M19,432.17c-4.05,1.17-8.27.47-12.38,1.1a67,67,0,0,1-7.77.57c-2.79.07-3.49-1-2.19-3.5,4.3-8.18,8.8-16.25,13-24.48,12.53-24.53,24.24-49.45,34.67-74.95,6.38-15.6,12.44-31.32,17.88-47.27.24-.7.19-1.64,1.22-1.85.68.22.58.74.41,1.2-2.34,6.45-4.52,12.95-6.91,19.38-2.91,7.83-5.85,15.65-9,23.36C42.82,338,37.81,350.38,32.08,362.42c-4.74,10-9.15,20.08-14,30-5.61,11.42-11.55,22.67-17.36,34-.22.44-.61.8-.82,1.25-.6,1.27-2.6,2.23-1.53,3.86.93,1.42,2.78.67,4.2.64,4.88-.11,9.76-.39,14.65-.56C17.84,431.55,18.65,431.26,19,432.17Z" transform="translate(48.23 -216.35)"/><path class="cls-2" d="M76.85,509.62c-.53,4.82-1,9.65-1.6,14.46-2.33,17.64-3.48,35.33-2.42,53.11.2,3.43,1.62,6.69,5.21,8s6.95.34,10.32-1.82c5.36-3.44,8.73-8.35,11.73-13.65A23.32,23.32,0,0,0,102.78,557c-.58-13,.69-25.92,1.65-38.85.08-1.12,0-2.39,1-3.26,1.53,2.64-.33,5.15-.28,7.74,0,.88-.34,1.77-.34,2.65.1,10.57-.83,21.1-.68,31.68.17,12.1-5.29,21.55-15.42,27.92-5,3.11-8.83,4.21-14.55-.8-2.57-2.26-2.91-5.44-3-8.43-.49-11.85.2-23.69.89-35.53.56-9.44,2.31-18.73,3.26-28.11C75.42,511,75.28,509.74,76.85,509.62Z" transform="translate(48.23 -216.35)"/><path class="cls-2" d="M543.47,513.77c.3,5.11-1.13,10.05-1.62,15.08-1.39,14.41-2.61,28.82-2.32,43.31a42.75,42.75,0,0,0,.5,5.05c1.2,8.33,7.63,11,14.75,6.94,9.94-5.68,15-14.83,15.39-26.12.41-12.16-.32-24.35,1.39-36.46.09-.65-.24-1.44.55-1.88,1.45,3,.34,6,0,8.95-1,9.15-.65,18.32-.53,27.47a31.25,31.25,0,0,1-3.11,14.67c-3.62,7.27-8.55,13.08-16.45,16-6.62,2.41-13.26-2-13.51-10.32a337.17,337.17,0,0,1,.78-35.81c.54-7,1.67-14,2.17-21C541.61,517.56,541.5,515.25,543.47,513.77Z" transform="translate(48.23 -216.35)"/><path class="cls-2" d="M93.55,371.71c.26,3.81-1.14,7.4-1.71,11.09-2.09,13.55-3,27.09-1.22,40.73.6,4.56.29,5.22-4.1,5.49-11.93.74-23.88,1.32-35.82,1.94a4.57,4.57,0,0,1-1.13-.24c1.07-1.75,3-1.22,4.45-1.34,7-.63,14.09-.94,21.15-1.34,4-.23,8-.46,11.92-.62,1.92-.08,2.69-.9,2.42-2.84a134.47,134.47,0,0,1-.06-33.9c.57-5,1.54-10,2.12-15C91.74,374.23,91.72,372.42,93.55,371.71Z" transform="translate(48.23 -216.35)"/><path class="cls-2" d="M9.94,471.39c3.37-.9,6.86-.81,10.29-1,20.4-1.23,40.8-2.28,61.21-3.36,4.85-.25,4.91-.07,3.68,4.73-.76,3-1.36,6-2.08,9-.22.92-.1,2-1.19,2.55-1.12-2.91,1.06-5.34,1.16-8.1a29.88,29.88,0,0,1,1.07-4.64c.27-1.35-.32-2.19-1.75-2.11-10.35.56-20.7,1.19-31,1.71q-19.28.94-38.56,1.73C11.81,471.92,10.71,472.39,9.94,471.39Z" transform="translate(48.23 -216.35)"/><path class="cls-2" d="M481.08,471.54c2.2-1.45,4.76-1.1,7.16-1.24,17.05-.94,34.1-1.75,51.14-2.63,3.69-.19,7.37-.47,11.06-.71,2.13-.14,3,.82,2.47,2.9-.93,3.72-1.27,7.6-3.19,11-1.39-2.75,1.22-5,1-7.58a6.55,6.55,0,0,1,.6-2c.57-2,.36-2.89-2.22-2.59-5.14.6-10.35.29-15.53.63-16.31,1-32.64,1.71-49,2.5A6.36,6.36,0,0,1,481.08,471.54Z" transform="translate(48.23 -216.35)"/><path class="cls-2" d="M153.65,610.84c-.07,1.65-1.35,2.8-1.77,4.33-1,3.5.64,5.86,4.16,5.49,10.89-1.15,21.77-2.42,32.65-3.67,4.41-.5,8.82-1.07,13.23-1.6.14,1.1-.63,1.34-1.45,1.45-15.08,2-30.14,4.2-45.37,4.92-3.07.15-4.48-1.24-5.18-3.78S151.36,611.71,153.65,610.84Z" transform="translate(48.23 -216.35)"/><path class="cls-2" d="M611,464.16a26.26,26.26,0,0,0,14.75-9.23,33.87,33.87,0,0,0,7.22-18c.47-5-2-8.92-5.81-12,2-.24,2.82.09,4,1.85,3,4.37,3.5,9.26,2.51,14.28A32.15,32.15,0,0,1,626,456.69c-3.3,3.64-6.87,7-12,7.78C613,464.63,611.88,465.3,611,464.16Z" transform="translate(48.23 -216.35)"/><path class="cls-2" d="M549.48,482.6c.65,2.39-.84,4.4-1.2,6.61-1.08,6.54-2.4,13-3.68,19.55-.14.71,0,1.64-.87,2.06-1-.49-.63-1.43-.5-2.1,1.45-7.8,2.93-15.6,4.5-23.37C547.93,484.31,548,482.91,549.48,482.6Z" transform="translate(48.23 -216.35)"/><path class="cls-2" d="M111.67,323.26c-1.13,4.13-3.56,7.69-5.14,11.62-1.75,4.34-3.59,8.64-5.4,12.95-.29.69-.17,1.63-1.15,1.9-.88-.23-.64-.81-.44-1.38a216.17,216.17,0,0,1,9.36-21.81C109.53,325.25,109.4,323.21,111.67,323.26Z" transform="translate(48.23 -216.35)"/><path class="cls-2" d="M81.54,485.59c.74,2.78-.74,5.2-1.35,7.74C79,498.13,79,503.18,77,507.78c-.73-.31-.62-1-.52-1.52,1.13-6.48,2-13,3.79-19.37C80.43,486.33,80.53,485.44,81.54,485.59Z" transform="translate(48.23 -216.35)"/><path class="cls-2" d="M573.63,507.75c-.54-3.84.85-7.47,1.5-11.13.76-4.32,1-8.84,3-12.89.9.39.64,1.19.51,1.79C577.23,492.26,576,499,575,505.86,574.92,506.63,574.86,507.69,573.63,507.75Z" transform="translate(48.23 -216.35)"/><path class="cls-2" d="M588.8,465.34a90.08,90.08,0,0,1,20.35-1.12c.22.91-.44,1-1,1l-18.09.69C589.54,465.93,589,465.91,588.8,465.34Z" transform="translate(48.23 -216.35)"/><path class="cls-2" d="M578.36,482c.55-5.2,2-10.21,3.32-15.26.2-.75.7-1.46,1.74-1.1-1.28,5.14-2.54,10.28-3.85,15.4C579.44,481.53,579.19,482.18,578.36,482Z" transform="translate(48.23 -216.35)"/><path class="cls-2" d="M99.52,351.41c-1.19,4-2.27,8.11-3.62,12.1-.68,2-.16,4.38-1.94,6-.82-.22-.75-.89-.59-1.43,1.37-4.84,2.74-9.68,4.22-14.49C97.87,352.68,98,351.32,99.52,351.41Z" transform="translate(48.23 -216.35)"/><path class="cls-2" d="M40,431a84.22,84.22,0,0,1-18.56,1.09c-.12-.44,0-.89.44-.9,5.93-.16,11.82-1.23,17.76-.62C39.76,430.58,39.87,430.85,40,431Z" transform="translate(48.23 -216.35)"/><path class="cls-2" d="M572.37,516.1a6.83,6.83,0,0,1,1-5.42C574.36,512.73,574.28,514.57,572.37,516.1Z" transform="translate(48.23 -216.35)"/><path class="cls-2" d="M320.88,217.57c-.54.67-1.05.8-1.46-.12C320,216.66,320.46,216.72,320.88,217.57Z" transform="translate(48.23 -216.35)"/><path class="cls-2" d="M100,402.73a150.27,150.27,0,0,1,8.25-49.27A191.21,191.21,0,0,1,131.42,307a162.84,162.84,0,0,1,44.34-44,185,185,0,0,1,52.13-24.44,262.46,262.46,0,0,1,43.75-8.52c14.83-1.68,29.51-1,44.22.68a259.42,259.42,0,0,1,38.2,7.26,206.87,206.87,0,0,1,45.05,17.61,171.28,171.28,0,0,1,39.81,29,160.16,160.16,0,0,1,37.19,57.64,9,9,0,0,1-.26,7.44c-7.59,16.27-15.13,32.56-23.46,48.48-8.74,16.72-17.86,33.21-27.62,49.36-3.2,5.28-5.19,11-4.12,17.37s4.12,9.58,10.32,8.93c11.73-1.22,23.56-.83,35.3-2,1.13-.12,2.59-.62,3.28.68.56,1.06-.4,2.08-.93,3-10.29,18.06-24.18,32.76-41.1,44.85s-35.1,21.32-53.6,30.3a556.17,556.17,0,0,1-55.68,23.53c-11.55,4.13-23.34,7.6-35.08,11.16q-12.6,3.81-25.38,7-10.27,2.61-20.71,4.55c-11.76,2.21-23.56,4.25-35.37,6.21a104.52,104.52,0,0,1-14.56,1.79c-.75,0-1.76.65-2.15-.27-.47-1.11.74-1.5,1.44-1.92q12.25-7.5,24.57-14.92,17.06-10.29,34.15-20.51a11.13,11.13,0,0,0,5.59-8.4c.38-2.63-.73-4.23-3.38-4.66-3.55-.58-7.09-1.2-10.65-1.64-9.57-1.17-18.76-3.89-27.82-7a171.36,171.36,0,0,1-51.27-27.94A150.06,150.06,0,0,1,122.68,479c-2.1-3.38-4.14-6.82-6.09-10.29-1.35-2.42-.88-3.14,2-3.3q11.82-.66,23.64-1.27a19,19,0,0,0,12.54-4.93c6.85-6.39,11.15-14,11-23.64-.14-7.57-3.87-11-11.45-10.54s-15.36.9-23,1.22c-3.69.16-4.09-.44-2.88-4,2.08-6.13,4.43-12.18,6.39-18.34,2.35-7.4,5.28-14.59,8.07-21.8,3.22-8.33,6.77-16.58,10-24.94,1.81-4.74,4-9.51,3.49-14.91-.63-6.28-5.23-10.73-10.53-9.58a19.34,19.34,0,0,0-6.49,2.67,26.64,26.64,0,0,0-9.9,12c-3.34,7.64-6.62,15.29-9.69,23.05q-8.53,21.56-16.47,43.33c-.39,1.07-.44,2.91-1.76,2.79-1.52-.15-1.37-2-1.41-3.23C99.87,409.72,100,406.23,100,402.73Zm173.61,11.1c-.24,6.77.2,14.79,3,22.54a13.33,13.33,0,0,0,21,6A23.16,23.16,0,0,0,306.38,427c2.65-16.84.67-33.38-3.38-49.76a21.56,21.56,0,0,0-5.35-9.91c-5.17-5.39-11.44-4.8-15.59,1.42a32.1,32.1,0,0,0-3.94,8.66C274.66,388.81,273.43,400.56,273.56,413.83Zm40.71-2.45c0,9.76-.06,19.53,0,29.3,0,3.59,2,5,5.45,4.41,2.32-.41,3.61-1.53,3.82-4.15.47-5.7-.36-11.36-.21-17,.09-3.3.44-6.24,3.76-8.13a33.55,33.55,0,0,0,5.35-4.29c7.43-6.56,14.18-13.59,15.08-24.19,1.22-14.34-4-23.52-20.47-23.73a59.72,59.72,0,0,0-12.79,1.24c-3.17.64-4.2,2.26-2.43,4.95,1.64,2.48,2,5.06,2.32,7.87.26,2.52-.35,5-.18,7.45A187.82,187.82,0,0,1,314.27,411.38Zm-45.39-11.85a67.8,67.8,0,0,0-2.66-21.79c-.87-2.84-1.68-5.82-4.86-7.14-.86-.35-1.62-1.47-2.65-.46-.79.77-.27,1.67,0,2.52a82.16,82.16,0,0,1,4.09,26.15,122.58,122.58,0,0,1-3,24.28c-.94,4.55-1.9,9.2-4.14,13.4-1.07,2-2.5,2.2-4,.5a6.56,6.56,0,0,1-1.33-2.32,70.54,70.54,0,0,1-3.31-15c-.87-10.87-1.24-21.73,1.28-32.45,1.63-6.9,3.54-13.72,8.75-19,1.24-1.27,2.64-3,1.62-4.75a5.82,5.82,0,0,0-5.56-2.93,6.57,6.57,0,0,0-4.68,2.41,41.18,41.18,0,0,0-7.6,14.11c-3.67,12-4.3,24.29-3.7,36.72.45,9.22,1.6,18.22,6.62,26.35,5.29,8.55,13,6.45,17.42.29a17.34,17.34,0,0,0,2.11-4.6A107.65,107.65,0,0,0,268.88,399.53Zm-37.23.66a68.57,68.57,0,0,0-1.48-22.85c-1.59-6.17-4.81-11.23-11.16-13.39-2.63-.9-5.42-1-7.8,1.32a36.39,36.39,0,0,0-10,17.32,96.85,96.85,0,0,0-.63,47.3,28,28,0,0,0,6.14,12.5,9.65,9.65,0,0,0,6.45,3.36c6.3.6,14.56-6.73,16-11.19A46.94,46.94,0,0,0,231.59,422C231.81,414.74,231.65,407.47,231.65,400.19Zm147-24.55c-.16-3.07.48-6.2-.43-9.23-1.38-4.58-5.57-5.61-8.7-2.1-1.1,1.22-2.34.94-3.58.8a9.79,9.79,0,0,0-10.27,5.2,31,31,0,0,0-4.32,14.42c-.5,9.72,3.33,18.08,7.2,26.53,3.37,7.34,7.77,14.19,10.25,21.94.52,1.63.32,3-1,4a3.56,3.56,0,0,1-4.45-.19,6.62,6.62,0,0,1-2.62-3.88,15.12,15.12,0,0,1-.17-6.82c.56-2.85-1.46-3.6-3.35-4-2.12-.46-2.48,1.47-2.87,3-.25,1-.47,1.94-.63,2.93-1.72,10.47,4.55,17.75,14.8,17.21,7.38-.4,11.8-5.34,10.85-12.37a32.55,32.55,0,0,0-1.83-7.22c-2.88-7.48-7.45-14.08-11.24-21.07-5-9.25-6.74-18.67-1.72-28.52.81-1.59,1.39-3.8,3.6-3.33s1,2.68,1.11,4.1c.27,2.79-1.15,5.48-.69,8.3.25,1.59.51,3.32,2.76,3.16,4.71-.33,6.8-2.53,7-7.23C378.46,379.43,378.6,377.54,378.7,375.64Zm22.74,8.46c0-6.07,0-10.75,0-15.44a13.49,13.49,0,0,0-.51-3.83c-.71-2.41-2.56-2.43-4.54-2.39-2.17.05-2.7,1.53-2.72,3.22-.06,4-1,7.92-1.13,11.85a296.86,296.86,0,0,0,1,39.67c.26,2.87,1.91,3.53,4.46,2.1a8.32,8.32,0,0,0,4.6-8.27C402.29,401.58,400.51,392.2,401.44,384.1Zm-151.1-136c-.89.12-2.46.39-4,.52a93.46,93.46,0,0,0-31.61,8.23c-10.18,4.75-19,11.46-27.27,19-1.32,1.19-2.8,2.3-3.46,4.06-.4,1.06-.63,2.22.34,3.05s1.87,0,2.64-.59c.95-.73,1.86-1.51,2.73-2.32,10.08-9.27,21.38-16.55,34.49-20.78a124.6,124.6,0,0,1,26.58-5.16c2.09-.2,4.39-2.34,4.08-4C254.42,248,252.68,248,250.34,248.1ZM369.81,535.64a6.13,6.13,0,0,0,1.54-.16,108.63,108.63,0,0,0,25.8-11.65A104.62,104.62,0,0,0,427.34,494c.78-1.14,1.93-2.06,2.14-3.53.13-.89.25-1.87-.69-2.42s-1.54.13-2.18.56c-1.29.84-1.95,2.24-2.83,3.44-5.76,7.79-12.07,15.05-19.8,21-10.08,7.75-21.44,12.94-33.55,16.61a6.71,6.71,0,0,0-2.61,1.38,3,3,0,0,0-1.08,3.46C367.24,535.84,368.48,535.64,369.81,535.64Zm22.61-103.23h-.07c0,.59,0,1.19,0,1.78-.07,1.46.1,2.86,1.62,3.52s2.67,0,3.91-.76a6.69,6.69,0,0,0,3.52-6.65c-.13-3-1.82-4.74-5.1-4.91-3.11-.15-3.32,2.28-3.83,4.35A11.31,11.31,0,0,0,392.42,432.41Z" transform="translate(48.23 -216.35)"/><path class="cls-2" d="M485.55,388.67c1.8,3.54,1.49,6.51,1.56,9.31a180,180,0,0,1-2.06,31.87c-.28,1.8-1.15,2.72-2.85,2.85-5.37.41-10.75.8-16.12,1.12-1.82.11-3.48-.25-2.27-2.69C470.78,417.15,478.88,403.75,485.55,388.67Z" transform="translate(48.23 -216.35)"/><path class="cls-1" d="M273.56,413.83c-.13-13.27,1.1-25,4.56-36.47a32.1,32.1,0,0,1,3.94-8.66c4.15-6.22,10.42-6.81,15.59-1.42a21.56,21.56,0,0,1,5.35,9.91c4.05,16.38,6,32.92,3.38,49.76a23.16,23.16,0,0,1-8.79,15.42,13.33,13.33,0,0,1-21-6C273.76,428.62,273.32,420.6,273.56,413.83Zm10.54-.63c.13,6.06-.39,12.14,1.4,18.11,1,3.22,2.92,5.95,5.37,6.15,3.07.26,4.75-1.91,6.08-4.13a29.19,29.19,0,0,0,3.78-11.87c1.43-12.61.25-25.1-1.94-37.5-.64-3.6-1.26-7.28-2.87-10.64-.63-1.34-1.24-3-3-3s-1.93,1.78-2.59,3a2.73,2.73,0,0,0-.19.57A115,115,0,0,0,284.1,413.2Z" transform="translate(48.23 -216.35)"/><path class="cls-1" d="M314.28,411.38a189.36,189.36,0,0,0-.27-26.31c-.17-2.49.44-4.93.18-7.45-.29-2.81-.68-5.39-2.32-7.87-1.77-2.69-.74-4.31,2.43-4.95a59.72,59.72,0,0,1,12.79-1.24c16.45.21,21.69,9.39,20.47,23.73-.9,10.6-7.65,17.63-15.08,24.19a33.55,33.55,0,0,1-5.35,4.29c-3.32,1.89-3.67,4.83-3.76,8.13-.15,5.68.68,11.34.21,17-.21,2.62-1.5,3.74-3.82,4.15-3.46.62-5.41-.82-5.45-4.41C314.21,430.91,314.27,421.14,314.28,411.38Zm24-30.57c0-.55,0-1.85,0-3.14-.19-4.17-2-6.11-6.2-6.5-2-.19-4-.07-6-.23-2.5-.19-3.31.88-3.22,3.32.38,9.84,1.69,19.64,1.27,29.52,0,.7,0,1.48.76,1.79s1.13-.22,1.56-.64C333,398.43,339.09,391.71,338.32,380.81Z" transform="translate(48.23 -216.35)"/><path class="cls-1" d="M268.88,399.53a107.65,107.65,0,0,1-5.59,36.25,17.34,17.34,0,0,1-2.11,4.6c-4.41,6.16-12.13,8.26-17.42-.29-5-8.13-6.17-17.13-6.62-26.35-.6-12.43,0-24.72,3.7-36.72a41.18,41.18,0,0,1,7.6-14.11,6.57,6.57,0,0,1,4.68-2.41,5.82,5.82,0,0,1,5.56,2.93c1,1.79-.38,3.48-1.62,4.75-5.21,5.32-7.12,12.14-8.75,19-2.52,10.72-2.15,21.58-1.28,32.45a70.54,70.54,0,0,0,3.31,15,6.56,6.56,0,0,0,1.33,2.32c1.46,1.7,2.89,1.51,4-.5,2.24-4.2,3.2-8.85,4.14-13.4a122.58,122.58,0,0,0,3-24.28,82.16,82.16,0,0,0-4.09-26.15c-.28-.85-.8-1.75,0-2.52,1-1,1.79.11,2.65.46,3.18,1.32,4,4.3,4.86,7.14A67.8,67.8,0,0,1,268.88,399.53Z" transform="translate(48.23 -216.35)"/><path class="cls-1" d="M231.65,400.19c0,7.28.16,14.55-.06,21.82a46.94,46.94,0,0,1-2.46,12.55c-1.42,4.46-9.68,11.79-16,11.19a9.65,9.65,0,0,1-6.45-3.36,28,28,0,0,1-6.14-12.5,96.85,96.85,0,0,1,.63-47.3,36.39,36.39,0,0,1,10-17.32c2.38-2.31,5.17-2.22,7.8-1.32,6.35,2.16,9.57,7.22,11.16,13.39A68.57,68.57,0,0,1,231.65,400.19Zm-4.44-1.74a81.27,81.27,0,0,0-1.8-18.41,19.08,19.08,0,0,0-3.51-8.18c-1.55-2-3.24-2.43-5.26-.51a18.83,18.83,0,0,0-4.34,6.72c-4.8,11.77-5.25,24.1-4.34,36.49a50.18,50.18,0,0,0,5.19,19.21c.93,1.83,2.23,3.48,4.51,3.39s3-2,3.69-3.8C225.4,422.07,226.87,410.35,227.21,398.45Z" transform="translate(48.23 -216.35)"/><path class="cls-1" d="M378.7,375.65c-.1,1.89-.24,3.78-.32,5.67-.18,4.7-2.27,6.9-7,7.23-2.25.16-2.51-1.57-2.76-3.16-.46-2.82,1-5.51.69-8.3-.14-1.42,1.11-3.63-1.11-4.1s-2.79,1.74-3.6,3.33c-5,9.85-3.3,19.27,1.72,28.52,3.79,7,8.36,13.59,11.24,21.07a32.55,32.55,0,0,1,1.83,7.22c.95,7-3.47,12-10.85,12.37-10.25.54-16.52-6.74-14.8-17.21.16-1,.38-2,.63-2.93.39-1.55.75-3.48,2.87-3,1.89.41,3.91,1.16,3.35,4a15.12,15.12,0,0,0,.17,6.82,6.62,6.62,0,0,0,2.62,3.88,3.56,3.56,0,0,0,4.45.19c1.32-1,1.52-2.41,1-4-2.48-7.75-6.88-14.6-10.25-21.94-3.87-8.45-7.7-16.81-7.2-26.53a31,31,0,0,1,4.32-14.42,9.79,9.79,0,0,1,10.27-5.2c1.24.14,2.48.42,3.58-.8,3.13-3.51,7.32-2.48,8.7,2.1C379.18,369.44,378.54,372.57,378.7,375.65Z" transform="translate(48.23 -216.35)"/><path class="cls-2" d="M284.1,413.2a115,115,0,0,1,6.08-39.37,2.73,2.73,0,0,1,.19-.57c.66-1.18.94-2.95,2.59-3s2.33,1.68,3,3c1.61,3.36,2.23,7,2.87,10.64,2.19,12.4,3.37,24.89,1.94,37.5A29.19,29.19,0,0,1,297,433.33c-1.33,2.22-3,4.39-6.08,4.13-2.45-.2-4.4-2.93-5.37-6.15C283.71,425.34,284.23,419.26,284.1,413.2Z" transform="translate(48.23 -216.35)"/><path class="cls-2" d="M338.32,380.81c.77,10.9-5.3,17.62-11.82,24.12-.43.42-.92.9-1.56.64s-.79-1.09-.76-1.79c.42-9.88-.89-19.68-1.27-29.52-.09-2.44.72-3.51,3.22-3.32,2,.16,4,0,6,.23,4.21.39,6,2.33,6.2,6.5C338.36,379,338.32,380.26,338.32,380.81Z" transform="translate(48.23 -216.35)"/><path class="cls-2" d="M227.21,398.45c-.34,11.9-1.81,23.62-5.86,34.91-.66,1.83-1.43,3.71-3.69,3.8s-3.58-1.56-4.51-3.39A50.18,50.18,0,0,1,208,414.56c-.91-12.39-.46-24.72,4.34-36.49a18.83,18.83,0,0,1,4.34-6.72c2-1.92,3.71-1.51,5.26.51a19.08,19.08,0,0,1,3.51,8.18A81.27,81.27,0,0,1,227.21,398.45Z" transform="translate(48.23 -216.35)"/></svg>