<svg width="416" height="467" viewBox="0 0 416 467" fill="none" xmlns="http://www.w3.org/2000/svg">
<path d="M211.357 460.479C210.613 459.766 209.979 458.909 209.514 457.929C206.29 451.229 1.60337 259.499 190.404 62.4612C191.621 57.7371 196.436 54.8962 201.152 56.1164C205.864 57.3398 208.717 62.1483 207.491 66.8699C24.5379 257.805 224.659 448.702 225.422 450.291C227.525 454.688 225.672 459.963 221.277 462.069C217.877 463.701 213.936 462.955 211.357 460.483L211.357 460.479Z" fill="black"/>
<path d="M110.539 61.5581C108.47 55.7322 111.513 49.3292 117.344 47.2588L237.552 4.5703C241.312 3.23534 245.484 3.99762 248.533 6.57417C251.58 9.13415 253.021 13.1438 252.329 17.0647L233.117 126.24C232.048 132.334 226.238 136.409 220.148 135.322C214.057 134.262 209.985 128.429 211.061 122.355L226.936 32.1115L124.838 68.3644C119.007 70.4348 112.607 67.3848 110.538 61.5589L110.539 61.5581Z" fill="black"/>
</svg>
